<?xml version="1.0" encoding="UTF-8" standalone="no"?>
<!-- Created with Inkscape (http://www.inkscape.org/) -->

<svg
   xmlns:dc="http://purl.org/dc/elements/1.1/"
   xmlns:cc="http://creativecommons.org/ns#"
   xmlns:rdf="http://www.w3.org/1999/02/22-rdf-syntax-ns#"
   xmlns:svg="http://www.w3.org/2000/svg"
   xmlns="http://www.w3.org/2000/svg"
   xmlns:sodipodi="http://sodipodi.sourceforge.net/DTD/sodipodi-0.dtd"
   xmlns:inkscape="http://www.inkscape.org/namespaces/inkscape"
   width="250"
   height="150"
   viewBox="0 0 250 150"
   id="svg4460"
   version="1.1"
   inkscape:version="0.91 r13725"
   inkscape:export-filename="/home/peter/officetemp/src/media/title-text.png"
   inkscape:export-xdpi="90"
   inkscape:export-ydpi="90"
   sodipodi:docname="title-text.svg">
  <defs
     id="defs4462" />
  <sodipodi:namedview
     id="base"
     pagecolor="#ffffff"
     bordercolor="#666666"
     borderopacity="1.0"
     inkscape:pageopacity="0.0"
     inkscape:pageshadow="2"
     inkscape:zoom="3.708"
     inkscape:cx="125"
     inkscape:cy="49.526042"
     inkscape:document-units="px"
     inkscape:current-layer="layer1"
     showgrid="false"
     units="px"
     inkscape:window-width="1600"
     inkscape:window-height="847"
     inkscape:window-x="0"
     inkscape:window-y="0"
     inkscape:window-maximized="1" />
  <metadata
     id="metadata4465">
    <rdf:RDF>
      <cc:Work
         rdf:about="">
        <dc:format>image/svg+xml</dc:format>
        <dc:type
           rdf:resource="http://purl.org/dc/dcmitype/StillImage" />
        <dc:title></dc:title>
      </cc:Work>
    </rdf:RDF>
  </metadata>
  <g
     inkscape:label="Layer 1"
     inkscape:groupmode="layer"
     id="layer1"
     transform="translate(0,-902.36216)">
    <path
       d="m 31.458586,930.18266 q -6.439396,0 -9.988387,4.75635 -3.548991,4.75639 -3.548991,13.39105 0,8.59805 3.548991,13.35443 3.548991,4.75638 9.988387,4.75638 6.475965,0 10.024957,-4.75638 3.548991,-4.75638 3.548991,-13.35443 0,-8.63466 -3.548991,-13.39105 -3.548992,-4.75635 -10.024957,-4.75635 z m 0,-10.20793 q 13.171511,0 20.63536,7.53704 7.463847,7.53702 7.463847,20.81829 0,13.24466 -7.463847,20.78167 -7.463849,7.53704 -20.63536,7.53704 -13.13489,0 -20.635358,-7.53704 -7.4638498,-7.53701 -7.4638498,-20.78167 0,-13.28127 7.4638498,-20.81829 7.500468,-7.53704 20.635358,-7.53704 z"
       id="path4398"
       inkscape:connector-curvature="0"
       style="font-style:normal;font-variant:normal;font-weight:bold;font-stretch:normal;font-size:medium;line-height:125%;font-family:sans-serif;-inkscape-font-specification:'sans-serif, Bold';text-align:start;letter-spacing:0px;word-spacing:0px;writing-mode:lr-tb;text-anchor:start;fill:#000000;fill-opacity:1;stroke:none;stroke-width:1px;stroke-linecap:butt;stroke-linejoin:miter;stroke-opacity:1" />
    <path
       d="m 96.54775,918.65758 0,8.59807 -7.244334,0 q -2.780637,0 -3.878283,1.02444 -1.097599,0.98788 -1.097599,3.47583 l 0,2.85382 11.195753,0 0,9.3664 -11.195753,0 0,31.6116 -13.098361,0 0,-31.6116 -6.512539,0 0,-9.3664 6.512539,0 0,-2.85382 q 0,-6.69551 3.73194,-9.87863 3.731895,-3.21971 11.561666,-3.21971 l 10.024971,0 z"
       id="path4400"
       inkscape:connector-curvature="0"
       style="font-style:normal;font-variant:normal;font-weight:bold;font-stretch:normal;font-size:medium;line-height:125%;font-family:sans-serif;-inkscape-font-specification:'sans-serif, Bold';text-align:start;letter-spacing:0px;word-spacing:0px;writing-mode:lr-tb;text-anchor:start;fill:#000000;fill-opacity:1;stroke:none;stroke-width:1px;stroke-linecap:butt;stroke-linejoin:miter;stroke-opacity:1" />
    <path
       d="m 129.50024,918.65758 0,8.59807 -7.24431,0 q -2.78064,0 -3.87828,1.02444 -1.0976,0.98788 -1.0976,3.47583 l 0,2.85382 11.19575,0 0,9.3664 -11.19575,0 0,31.6116 -13.09832,0 0,-31.6116 -6.512598,0 0,-9.3664 6.512598,0 0,-2.85382 q 0,-6.69551 3.7319,-9.87863 3.73194,-3.21971 11.56166,-3.21971 l 10.02495,0 z"
       id="path4402"
       inkscape:connector-curvature="0"
       style="font-style:normal;font-variant:normal;font-weight:bold;font-stretch:normal;font-size:medium;line-height:125%;font-family:sans-serif;-inkscape-font-specification:'sans-serif, Bold';text-align:start;letter-spacing:0px;word-spacing:0px;writing-mode:lr-tb;text-anchor:start;fill:#000000;fill-opacity:1;stroke:none;stroke-width:1px;stroke-linecap:butt;stroke-linejoin:miter;stroke-opacity:1" />
    <path
       d="m 135.48782,934.60974 13.09832,0 0,40.978 -13.09832,0 0,-40.978 z m 0,-15.95216 13.09832,0 0,10.68355 -13.09832,0 0,-10.68355 z"
       id="path4404"
       inkscape:connector-curvature="0"
       style="font-style:normal;font-variant:normal;font-weight:bold;font-stretch:normal;font-size:medium;line-height:125%;font-family:sans-serif;-inkscape-font-specification:'sans-serif, Bold';text-align:start;letter-spacing:0px;word-spacing:0px;writing-mode:lr-tb;text-anchor:start;fill:#000000;fill-opacity:1;stroke:none;stroke-width:1px;stroke-linecap:butt;stroke-linejoin:miter;stroke-opacity:1" />
    <path
       d="m 194.35712,935.89029 0,10.68355 q -2.67094,-1.82938 -5.37839,-2.70746 -2.67086,-0.87812 -5.56132,-0.87812 -5.48809,0 -8.56144,3.21971 -3.0368,3.18312 -3.0368,8.92735 0,5.74423 3.0368,8.96394 3.07335,3.18312 8.56144,3.18312 3.07337,0 5.81743,-0.91469 2.78064,-0.91469 5.12228,-2.70748 l 0,10.72014 q -3.07337,1.13421 -6.25651,1.68301 -3.14651,0.58541 -6.32962,0.58541 -11.08603,0 -17.34247,-5.67107 -6.25648,-5.70763 -6.25648,-15.84238 0,-10.13474 6.25648,-15.80579 6.25644,-5.70766 17.34247,-5.70766 3.21971,0 6.32962,0.58541 3.14657,0.5488 6.25651,1.68301 z"
       id="path4406"
       inkscape:connector-curvature="0"
       style="font-style:normal;font-variant:normal;font-weight:bold;font-stretch:normal;font-size:medium;line-height:125%;font-family:sans-serif;-inkscape-font-specification:'sans-serif, Bold';text-align:start;letter-spacing:0px;word-spacing:0px;writing-mode:lr-tb;text-anchor:start;fill:#000000;fill-opacity:1;stroke:none;stroke-width:1px;stroke-linecap:butt;stroke-linejoin:miter;stroke-opacity:1" />
    <path
       d="m 246.64062,954.98898 0,3.73192 -30.62371,0 q 0.47564,4.61001 3.32946,6.91503 2.85384,2.30502 7.97607,2.30502 4.13437,0 8.45173,-1.2074 4.3539,-1.24396 8.92735,-3.73191 l 0,10.09815 q -4.64663,1.7562 -9.29322,2.6343 -4.64665,0.91468 -9.29324,0.91468 -11.12259,0 -17.30589,-5.63447 -6.14671,-5.67108 -6.14671,-15.87898 0,-10.02497 6.03694,-15.7692 6.07352,-5.74425 16.68389,-5.74425 9.6591,0 15.43994,5.81741 5.81739,5.81741 5.81739,15.5497 z m -13.4642,-4.35392 q 0,-3.73192 -2.19522,-6.00035 -2.15868,-2.30502 -5.67105,-2.30502 -3.80515,0 -6.1833,2.15868 -2.37821,2.12206 -2.9636,6.14669 l 17.01317,0 z"
       id="path4408"
       inkscape:connector-curvature="0"
       style="font-style:normal;font-variant:normal;font-weight:bold;font-stretch:normal;font-size:medium;line-height:125%;font-family:sans-serif;-inkscape-font-specification:'sans-serif, Bold';text-align:start;letter-spacing:0px;word-spacing:0px;writing-mode:lr-tb;text-anchor:start;fill:#000000;fill-opacity:1;stroke:none;stroke-width:1px;stroke-linecap:butt;stroke-linejoin:miter;stroke-opacity:1" />
    <path
       d="m 6.4407636,988.56171 38.4385574,0 0,8.12909 -13.827814,0 0,33.5779 -10.754971,0 0,-33.5779 -13.8557724,0 0,-8.12909 z"
       id="path4412"
       inkscape:connector-curvature="0"
       style="font-style:normal;font-variant:normal;font-weight:bold;font-stretch:normal;font-size:medium;line-height:125%;font-family:sans-serif;-inkscape-font-specification:'sans-serif, Bold';text-align:start;letter-spacing:0px;word-spacing:0px;writing-mode:lr-tb;text-anchor:start;fill:#000000;fill-opacity:1;stroke:none;stroke-width:1px;stroke-linecap:butt;stroke-linejoin:miter;stroke-opacity:1" />
    <path
       d="m 73.596563,1014.5413 0,2.8494 -23.381626,0 q 0.363142,3.5198 2.542087,5.2797 2.178942,1.7599 6.089813,1.7599 3.156673,0 6.453001,-0.9218 3.324285,-0.9498 6.816133,-2.8494 l 0,7.7101 q -3.547722,1.3408 -7.095492,2.0113 -3.547726,0.6984 -7.095499,0.6984 -8.492244,0 -13.213274,-4.302 -4.693069,-4.33 -4.693069,-12.1238 0,-7.6542 4.609286,-12.0401 4.6372,-4.38578 12.738387,-4.38578 7.374813,0 11.78857,4.44168 4.441683,4.4417 4.441683,11.8724 z m -10.280098,-3.3242 q 0,-2.8494 -1.676099,-4.5814 -1.648186,-1.7599 -4.329928,-1.7599 -2.905272,0 -4.721029,1.6482 -1.815758,1.6202 -2.262729,4.6931 l 12.989785,0 z"
       id="path4414"
       inkscape:connector-curvature="0"
       style="font-style:normal;font-variant:normal;font-weight:bold;font-stretch:normal;font-size:medium;line-height:125%;font-family:sans-serif;-inkscape-font-specification:'sans-serif, Bold';text-align:start;letter-spacing:0px;word-spacing:0px;writing-mode:lr-tb;text-anchor:start;fill:#000000;fill-opacity:1;stroke:none;stroke-width:1px;stroke-linecap:butt;stroke-linejoin:miter;stroke-opacity:1" />
    <path
       d="m 110.13557,1004.1774 q 1.89958,-2.9053 4.49753,-4.41374 2.62587,-1.53644 5.75459,-1.53644 5.39149,0 8.21294,3.32428 2.82143,3.3243 2.82143,9.6656 l 0,19.0516 -10.05662,0 0,-16.314 q 0.0278,-0.3632 0.0278,-0.7543 0.0278,-0.391 0.0278,-1.1174 0,-3.3242 -0.97773,-4.8048 -0.97768,-1.5085 -3.15662,-1.5085 -2.84942,0 -4.41377,2.3466 -1.5364,2.3465 -1.59227,6.7882 l 0,15.3642 -10.05661,0 0,-16.314 q 0,-5.1959 -0.89393,-6.6765 -0.8939,-1.5085 -3.184592,-1.5085 -2.877303,0 -4.441659,2.3745 -1.564357,2.3465 -1.564357,6.7323 l 0,15.3922 -10.056603,0 0,-31.28723 10.056603,0 0,4.58143 q 1.843704,-2.6539 4.218187,-3.9948 2.40242,-1.34088 5.279701,-1.34088 3.24044,0 5.72671,1.56438 2.48621,1.5644 3.77122,4.3858 z"
       id="path4416"
       inkscape:connector-curvature="0"
       style="font-style:normal;font-variant:normal;font-weight:bold;font-stretch:normal;font-size:medium;line-height:125%;font-family:sans-serif;-inkscape-font-specification:'sans-serif, Bold';text-align:start;letter-spacing:0px;word-spacing:0px;writing-mode:lr-tb;text-anchor:start;fill:#000000;fill-opacity:1;stroke:none;stroke-width:1px;stroke-linecap:butt;stroke-linejoin:miter;stroke-opacity:1" />
    <path
       d="m 150.80895,1025.7433 0,16.4257 -10.00073,0 0,-43.18753 10.00073,0 0,4.58143 q 2.0672,-2.7377 4.58137,-4.02274 2.51412,-1.31294 5.78254,-1.31294 5.78255,0 9.49794,4.60928 3.71534,4.5814 3.71534,11.8166 0,7.2351 -3.71534,11.8444 -3.71539,4.5814 -9.49794,4.5814 -3.26842,0 -5.78254,-1.2851 -2.51417,-1.3129 -4.58137,-4.0505 z m 6.64857,-20.2529 q -3.21255,0 -4.94452,2.3745 -1.70405,2.3465 -1.70405,6.7882 0,4.4416 1.70405,6.8161 1.73197,2.3465 4.94452,2.3465 3.2125,0 4.88861,-2.3465 1.70404,-2.3465 1.70404,-6.8161 0,-4.4696 -1.70404,-6.8162 -1.67611,-2.3465 -4.88861,-2.3465 z"
       id="path4418"
       inkscape:connector-curvature="0"
       style="font-style:normal;font-variant:normal;font-weight:bold;font-stretch:normal;font-size:medium;line-height:125%;font-family:sans-serif;-inkscape-font-specification:'sans-serif, Bold';text-align:start;letter-spacing:0px;word-spacing:0px;writing-mode:lr-tb;text-anchor:start;fill:#000000;fill-opacity:1;stroke:none;stroke-width:1px;stroke-linecap:butt;stroke-linejoin:miter;stroke-opacity:1" />
    <path
       d="m 213.04818,1014.5413 0,2.8494 -23.38161,0 q 0.36318,3.5198 2.54208,5.2797 2.17895,1.7599 6.08985,1.7599 3.15668,0 6.45301,-0.9218 3.32423,-0.9498 6.81614,-2.8494 l 0,7.7101 q -3.54776,1.3408 -7.09551,2.0113 -3.54777,0.6984 -7.09549,0.6984 -8.49225,0 -13.21328,-4.302 -4.69306,-4.33 -4.69306,-12.1238 0,-7.6542 4.60928,-12.0401 4.63719,-4.38578 12.73834,-4.38578 7.37486,0 11.78861,4.44168 4.44164,4.4417 4.44164,11.8724 z m -10.28008,-3.3242 q 0,-2.8494 -1.6761,-4.5814 -1.64815,-1.7599 -4.32994,-1.7599 -2.90522,0 -4.72098,1.6482 -1.81582,1.6202 -2.26278,4.6931 l 12.9898,0 z"
       id="path4420"
       inkscape:connector-curvature="0"
       style="font-style:normal;font-variant:normal;font-weight:bold;font-stretch:normal;font-size:medium;line-height:125%;font-family:sans-serif;-inkscape-font-specification:'sans-serif, Bold';text-align:start;letter-spacing:0px;word-spacing:0px;writing-mode:lr-tb;text-anchor:start;fill:#000000;fill-opacity:1;stroke:none;stroke-width:1px;stroke-linecap:butt;stroke-linejoin:miter;stroke-opacity:1" />
    <path
       d="m 243.8326,1007.5017 q -1.31295,-0.6146 -2.62592,-0.8939 -1.28498,-0.3073 -2.59795,-0.3073 -3.85498,0 -5.95014,2.4862 -2.06718,2.4583 -2.06718,7.0676 l 0,14.4144 -10.00075,0 0,-31.28723 10.00075,0 0,5.14003 q 1.92751,-3.0728 4.41372,-4.46959 2.51417,-1.42469 6.00604,-1.42469 0.50284,0 1.08948,0.0558 0.5866,0.028 1.70399,0.16757 l 0.0278,9.05101 z"
       id="path4422"
       inkscape:connector-curvature="0"
       style="font-style:normal;font-variant:normal;font-weight:bold;font-stretch:normal;font-size:medium;line-height:125%;font-family:sans-serif;-inkscape-font-specification:'sans-serif, Bold';text-align:start;letter-spacing:0px;word-spacing:0px;writing-mode:lr-tb;text-anchor:start;fill:#000000;fill-opacity:1;stroke:none;stroke-width:1px;stroke-linecap:butt;stroke-linejoin:miter;stroke-opacity:1" />
  </g>
</svg>
