<?xml version="1.0" encoding="UTF-8" standalone="no"?>
<!-- Created with Inkscape (http://www.inkscape.org/) -->

<svg
   xmlns:dc="http://purl.org/dc/elements/1.1/"
   xmlns:cc="http://creativecommons.org/ns#"
   xmlns:rdf="http://www.w3.org/1999/02/22-rdf-syntax-ns#"
   xmlns:svg="http://www.w3.org/2000/svg"
   xmlns="http://www.w3.org/2000/svg"
   xmlns:sodipodi="http://sodipodi.sourceforge.net/DTD/sodipodi-0.dtd"
   xmlns:inkscape="http://www.inkscape.org/namespaces/inkscape"
   width="500"
   height="300"
   viewBox="0 0 500 300"
   id="svg4460"
   version="1.1"
   inkscape:version="0.91 r13725"
   inkscape:export-filename="/home/peter/officetemp/src/media/title-text.png"
   inkscape:export-xdpi="90"
   inkscape:export-ydpi="90"
   sodipodi:docname="title-text.svg">
  <defs
     id="defs4462" />
  <sodipodi:namedview
     id="base"
     pagecolor="#ffffff"
     bordercolor="#666666"
     borderopacity="1.0"
     inkscape:pageopacity="0.0"
     inkscape:pageshadow="2"
     inkscape:zoom="0.927"
     inkscape:cx="291.4025"
     inkscape:cy="226.01916"
     inkscape:document-units="px"
     inkscape:current-layer="layer1"
     showgrid="false"
     units="px"
     inkscape:window-width="1600"
     inkscape:window-height="847"
     inkscape:window-x="0"
     inkscape:window-y="0"
     inkscape:window-maximized="1" />
  <metadata
     id="metadata4465">
    <rdf:RDF>
      <cc:Work
         rdf:about="">
        <dc:format>image/svg+xml</dc:format>
        <dc:type
           rdf:resource="http://purl.org/dc/dcmitype/StillImage" />
        <dc:title></dc:title>
      </cc:Work>
    </rdf:RDF>
  </metadata>
  <g
     inkscape:label="Layer 1"
     inkscape:groupmode="layer"
     id="layer1"
     transform="translate(0,-752.36216)">
    <path
       d="m 60.364966,808.97942 q -13.063769,0 -20.263699,9.64933 -7.199929,9.64942 -7.199929,27.16677 0,17.44309 7.199929,27.09248 7.19993,9.64939 20.263699,9.64939 13.137957,0 20.337888,-9.64939 7.19993,-9.64939 7.19993,-27.09248 0,-17.51735 -7.19993,-27.16677 -7.199931,-9.64933 -20.337888,-9.64933 z m 0,-20.70909 q 26.721384,0 41.863484,15.29059 15.1421,15.29055 15.1421,42.2346 0,26.86979 -15.1421,42.16031 -15.1421,15.29059 -41.863484,15.29059 -26.64709,0 -41.863483,-15.29059 -15.1421048,-15.29052 -15.1421048,-42.16031 0,-26.94405 15.1421048,-42.2346 15.216393,-15.29059 41.863483,-15.29059 z"
       id="path4398"
       inkscape:connector-curvature="0"
       style="font-style:normal;font-variant:normal;font-weight:bold;font-stretch:normal;font-size:medium;line-height:125%;font-family:sans-serif;-inkscape-font-specification:'sans-serif, Bold';text-align:start;letter-spacing:0px;word-spacing:0px;writing-mode:lr-tb;text-anchor:start;fill:#000000;fill-opacity:1;stroke:none;stroke-width:1px;stroke-linecap:butt;stroke-linejoin:miter;stroke-opacity:1" />
    <path
       d="m 192.41303,785.5982 0,17.44312 -14.69677,0 q -5.64115,0 -7.86797,2.07831 -2.22673,2.00414 -2.22673,7.05151 l 0,5.78962 22.71312,0 0,19.00185 -22.71312,0 0,64.13127 -26.57298,0 0,-64.13127 -13.21215,0 0,-19.00185 13.21215,0 0,-5.78962 q 0,-13.58336 7.57108,-20.04103 7.571,-6.53191 23.45545,-6.53191 l 20.33792,0 z"
       id="path4400"
       inkscape:connector-curvature="0"
       style="font-style:normal;font-variant:normal;font-weight:bold;font-stretch:normal;font-size:medium;line-height:125%;font-family:sans-serif;-inkscape-font-specification:'sans-serif, Bold';text-align:start;letter-spacing:0px;word-spacing:0px;writing-mode:lr-tb;text-anchor:start;fill:#000000;fill-opacity:1;stroke:none;stroke-width:1px;stroke-linecap:butt;stroke-linejoin:miter;stroke-opacity:1" />
    <path
       d="m 259.2646,785.5982 0,17.44312 -14.69672,0 q -5.64116,0 -7.86797,2.07831 -2.22673,2.00414 -2.22673,7.05151 l 0,5.78962 22.71311,0 0,19.00185 -22.71311,0 0,64.13127 -26.5729,0 0,-64.13127 -13.21227,0 0,-19.00185 13.21227,0 0,-5.78962 q 0,-13.58336 7.571,-20.04103 7.57109,-6.53191 23.45544,-6.53191 l 20.33788,0 z"
       id="path4402"
       inkscape:connector-curvature="0"
       style="font-style:normal;font-variant:normal;font-weight:bold;font-stretch:normal;font-size:medium;line-height:125%;font-family:sans-serif;-inkscape-font-specification:'sans-serif, Bold';text-align:start;letter-spacing:0px;word-spacing:0px;writing-mode:lr-tb;text-anchor:start;fill:#000000;fill-opacity:1;stroke:none;stroke-width:1px;stroke-linecap:butt;stroke-linejoin:miter;stroke-opacity:1" />
    <path
       d="m 271.41176,817.96076 26.57289,0 0,83.13312 -26.57289,0 0,-83.13312 z m 0,-32.36256 26.57289,0 0,21.67399 -26.57289,0 0,-21.67399 z"
       id="path4404"
       inkscape:connector-curvature="0"
       style="font-style:normal;font-variant:normal;font-weight:bold;font-stretch:normal;font-size:medium;line-height:125%;font-family:sans-serif;-inkscape-font-specification:'sans-serif, Bold';text-align:start;letter-spacing:0px;word-spacing:0px;writing-mode:lr-tb;text-anchor:start;fill:#000000;fill-opacity:1;stroke:none;stroke-width:1px;stroke-linecap:butt;stroke-linejoin:miter;stroke-opacity:1" />
    <path
       d="m 390.84142,820.55864 0,21.67399 q -5.4186,-3.71131 -10.91128,-5.49269 -5.41844,-1.78146 -11.28239,-1.78146 -11.13383,0 -17.36881,6.5319 -6.16084,6.45768 -6.16084,18.11115 0,11.65347 6.16084,18.18538 6.23498,6.45767 17.36881,6.45767 6.23503,0 11.80197,-1.85565 5.64116,-1.85566 10.3917,-5.49274 l 0,21.74823 q -6.23502,2.301 -12.69274,3.41436 -6.38341,1.18764 -12.84106,1.18764 -22.49052,0 -35.18312,-11.50505 -12.69268,-11.57921 -12.69268,-32.13984 0,-20.56061 12.69268,-32.06561 12.6926,-11.57928 35.18312,-11.57928 6.5319,0 12.84106,1.18763 6.38353,1.11337 12.69274,3.41437 z"
       id="path4406"
       inkscape:connector-curvature="0"
       style="font-style:normal;font-variant:normal;font-weight:bold;font-stretch:normal;font-size:medium;line-height:125%;font-family:sans-serif;-inkscape-font-specification:'sans-serif, Bold';text-align:start;letter-spacing:0px;word-spacing:0px;writing-mode:lr-tb;text-anchor:start;fill:#000000;fill-opacity:1;stroke:none;stroke-width:1px;stroke-linecap:butt;stroke-linejoin:miter;stroke-opacity:1" />
    <path
       d="m 496.91031,859.30465 0,7.57104 -62.12711,0 q 0.96494,9.35244 6.75456,14.0287 5.78966,4.67625 16.18126,4.67625 8.3875,0 17.14624,-2.44948 8.83287,-2.52366 18.11114,-7.57102 l 0,20.48637 q -9.42673,3.56285 -18.85339,5.34427 -9.42678,1.85564 -18.85344,1.85564 -22.56468,0 -35.1089,-11.43079 -12.46999,-11.50507 -12.46999,-32.2141 0,-20.33792 12.2473,-31.99138 12.3215,-11.65351 33.84703,-11.65351 19.59567,0 31.32341,11.80193 11.80189,11.80193 11.80189,31.54608 z m -27.31517,-8.83291 q 0,-7.57105 -4.4535,-12.17307 -4.37937,-4.67625 -11.50501,-4.67625 -7.7196,0 -12.54422,4.37937 -4.82473,4.30507 -6.01233,12.46995 l 34.51506,0 z"
       id="path4408"
       inkscape:connector-curvature="0"
       style="font-style:normal;font-variant:normal;font-weight:bold;font-stretch:normal;font-size:medium;line-height:125%;font-family:sans-serif;-inkscape-font-specification:'sans-serif, Bold';text-align:start;letter-spacing:0px;word-spacing:0px;writing-mode:lr-tb;text-anchor:start;fill:#000000;fill-opacity:1;stroke:none;stroke-width:1px;stroke-linecap:butt;stroke-linejoin:miter;stroke-opacity:1" />
    <path
       d="m 9.6106642,927.41451 77.9812928,0 0,16.49169 -28.052843,0 0,68.1204 -21.818887,0 0,-68.1204 -28.1095628,0 0,-16.49169 z"
       id="path4412"
       inkscape:connector-curvature="0"
       style="font-style:normal;font-variant:normal;font-weight:bold;font-stretch:normal;font-size:medium;line-height:125%;font-family:sans-serif;-inkscape-font-specification:'sans-serif, Bold';text-align:start;letter-spacing:0px;word-spacing:0px;writing-mode:lr-tb;text-anchor:start;fill:#000000;fill-opacity:1;stroke:none;stroke-width:1px;stroke-linecap:butt;stroke-linejoin:miter;stroke-opacity:1" />
    <path
       d="m 145.85137,980.11997 0,5.78065 -47.434911,0 q 0.736715,7.14071 5.157201,10.71108 4.42047,3.5703 12.35456,3.5703 6.40402,0 13.09137,-1.87 6.74406,-1.9269 13.82806,-5.78069 l 0,15.64169 q -7.19735,2.7201 -14.39481,4.0804 -7.19736,1.4168 -14.39482,1.4168 -17.228433,0 -26.806108,-8.7276 -9.52095,-8.7843 -9.52095,-24.59582 0,-15.52827 9.350977,-24.42606 9.407607,-8.89754 25.842691,-8.89754 14.96148,0 23.91578,9.01095 9.01096,9.01099 9.01096,24.08584 z m -20.8555,-6.74389 q 0,-5.78065 -3.40035,-9.2944 -3.34372,-3.57036 -8.78424,-3.57036 -5.894,0 -9.57767,3.34375 -3.683674,3.28694 -4.590455,9.52101 l 26.352715,0 z"
       id="path4414"
       inkscape:connector-curvature="0"
       style="font-style:normal;font-variant:normal;font-weight:bold;font-stretch:normal;font-size:medium;line-height:125%;font-family:sans-serif;-inkscape-font-specification:'sans-serif, Bold';text-align:start;letter-spacing:0px;word-spacing:0px;writing-mode:lr-tb;text-anchor:start;fill:#000000;fill-opacity:1;stroke:none;stroke-width:1px;stroke-linecap:butt;stroke-linejoin:miter;stroke-opacity:1" />
    <path
       d="m 219.97899,959.09446 q 3.85373,-5.89406 9.12426,-8.95427 5.32717,-3.11701 11.67448,-3.11701 10.93786,0 16.66181,6.74405 5.7239,6.74409 5.7239,19.60885 l 0,38.65052 -20.40212,0 0,-33.09668 q 0.0564,-0.73683 0.0564,-1.53027 0.0564,-0.79323 0.0564,-2.26689 0,-6.74389 -1.98355,-9.74763 -1.98344,-3.06033 -6.40392,-3.06033 -5.78069,0 -8.95433,4.76061 -3.11693,4.7604 -3.23027,13.7714 l 0,31.16979 -20.40211,0 0,-33.09668 q 0,-10.54105 -1.81354,-13.54479 -1.81348,-3.06033 -6.46066,-3.06033 -5.83726,0 -9.01091,4.81721 -3.17365,4.76041 -3.17365,13.65799 l 0,31.2266 -20.40209,0 0,-63.47326 20.40209,0 0,9.29447 q 3.74037,-5.38404 8.55754,-8.10435 4.87386,-2.72028 10.71107,-2.72028 6.57396,0 11.61792,3.1737 5.04384,3.17373 7.65077,8.89758 z"
       id="path4416"
       inkscape:connector-curvature="0"
       style="font-style:normal;font-variant:normal;font-weight:bold;font-stretch:normal;font-size:medium;line-height:125%;font-family:sans-serif;-inkscape-font-specification:'sans-serif, Bold';text-align:start;letter-spacing:0px;word-spacing:0px;writing-mode:lr-tb;text-anchor:start;fill:#000000;fill-opacity:1;stroke:none;stroke-width:1px;stroke-linecap:butt;stroke-linejoin:miter;stroke-opacity:1" />
    <path
       d="m 302.49413,1002.8458 0,33.3232 -20.28874,0 0,-87.61566 20.28874,0 0,9.29447 q 4.19378,-5.55404 9.29434,-8.16104 5.10046,-2.66359 11.73119,-2.66359 11.73121,0 19.26871,9.35096 7.53741,9.29441 7.53741,23.97264 0,14.67802 -7.53741,24.02902 -7.5375,9.2944 -19.26871,9.2944 -6.63073,0 -11.73119,-2.6071 -5.10056,-2.6635 -9.29434,-8.2173 z m 13.48812,-41.08762 q -6.51738,0 -10.03107,4.81721 -3.45705,4.7604 -3.45705,13.77139 0,9.01079 3.45705,13.82802 3.51369,4.7604 10.03107,4.7604 6.51728,0 9.91765,-4.7604 3.45703,-4.76042 3.45703,-13.82802 0,-9.06759 -3.45703,-13.8282 -3.40037,-4.7604 -9.91765,-4.7604 z"
       id="path4418"
       inkscape:connector-curvature="0"
       style="font-style:normal;font-variant:normal;font-weight:bold;font-stretch:normal;font-size:medium;line-height:125%;font-family:sans-serif;-inkscape-font-specification:'sans-serif, Bold';text-align:start;letter-spacing:0px;word-spacing:0px;writing-mode:lr-tb;text-anchor:start;fill:#000000;fill-opacity:1;stroke:none;stroke-width:1px;stroke-linecap:butt;stroke-linejoin:miter;stroke-opacity:1" />
    <path
       d="m 428.76046,980.11997 0,5.78065 -47.43488,0 q 0.7368,7.14071 5.15719,10.71108 4.42049,3.5703 12.35463,3.5703 6.40404,0 13.09139,-1.87 6.74395,-1.9269 13.82808,-5.78069 l 0,15.64169 q -7.19743,2.7201 -14.39485,4.0804 -7.19745,1.4168 -14.3948,1.4168 -17.22845,0 -26.80612,-8.7276 -9.52093,-8.7843 -9.52093,-24.59582 0,-15.52827 9.35096,-24.42606 9.40759,-8.89754 25.8426,-8.89754 14.96157,0 23.91586,9.01095 9.01087,9.01099 9.01087,24.08584 z m -20.85547,-6.74389 q 0,-5.78065 -3.40034,-9.2944 -3.34365,-3.57036 -8.78426,-3.57036 -5.8939,0 -9.57758,3.34375 -3.6838,3.28694 -4.59056,9.52101 l 26.35274,0 z"
       id="path4420"
       inkscape:connector-curvature="0"
       style="font-style:normal;font-variant:normal;font-weight:bold;font-stretch:normal;font-size:medium;line-height:125%;font-family:sans-serif;-inkscape-font-specification:'sans-serif, Bold';text-align:start;letter-spacing:0px;word-spacing:0px;writing-mode:lr-tb;text-anchor:start;fill:#000000;fill-opacity:1;stroke:none;stroke-width:1px;stroke-linecap:butt;stroke-linejoin:miter;stroke-opacity:1" />
    <path
       d="m 491.2136,965.83855 q -2.66361,-1.24685 -5.32727,-1.81347 -2.60687,-0.62343 -5.27053,-0.62343 -7.82069,0 -12.0712,5.04382 -4.19374,4.98721 -4.19374,14.33822 l 0,29.24291 -20.28878,0 0,-63.47326 20.28878,0 0,10.42772 q 3.91039,-6.23387 8.95423,-9.06758 5.10056,-2.8903 12.18461,-2.8903 1.02012,0 2.21025,0.1132 1.19005,0.0568 3.45693,0.33995 l 0.0564,18.36202 z"
       id="path4422"
       inkscape:connector-curvature="0"
       style="font-style:normal;font-variant:normal;font-weight:bold;font-stretch:normal;font-size:medium;line-height:125%;font-family:sans-serif;-inkscape-font-specification:'sans-serif, Bold';text-align:start;letter-spacing:0px;word-spacing:0px;writing-mode:lr-tb;text-anchor:start;fill:#000000;fill-opacity:1;stroke:none;stroke-width:1px;stroke-linecap:butt;stroke-linejoin:miter;stroke-opacity:1" />
  </g>
</svg>
